<?xml version="1.0" encoding="utf-8"?>
<!-- Generator: Adobe Illustrator 22.1.0, SVG Export Plug-In . SVG Version: 6.00 Build 0)  -->
<svg version="1.1" id="Layer_1" xmlns="http://www.w3.org/2000/svg" xmlns:xlink="http://www.w3.org/1999/xlink" x="0px" y="0px"
	 viewBox="0 0 150 50" style="enable-background:new 0 0 150 50;" xml:space="preserve">
<style type="text/css">
	.st0{fill:#293643;}
	.st1{fill:url(#SVGID_1_);}
</style>
<polygon id="bracket_left" class="st0" points="1.5,20.8 18.6,9 20.8,9.2 20.1,12.7 6.8,21.9 16.2,32.2 15.6,35.6 12.1,35.4 1,23.3 
	"/>
<polygon id="bracket_right" class="st0" points="137.1,18.1 140.2,18.1 150,27.9 149.7,30 135.5,41 133.5,41 134,37.8 145.3,29.5 
	136.5,21 "/>
<linearGradient id="SVGID_1_" gradientUnits="userSpaceOnUse" x1="17.3902" y1="26.8049" x2="133.5897" y2="26.8049">
	<stop  offset="0" style="stop-color:#001E68"/>
	<stop  offset="1" style="stop-color:#005DC2"/>
</linearGradient>
<path class="st1" d="M133.6,18.1c0,0.4-0.1,1.2-0.6,2c-0.6,1-1.5,1.5-1.8,1.6c-3,0-6,0-9,0.1c-0.3-0.6-0.8-1.4-1.6-2.2
	c-0.8-0.8-1.7-1.3-2.3-1.5C123.4,18.1,128.5,18.1,133.6,18.1z M129.6,26.9L129.6,26.9c0-0.9-0.8-1.7-1.7-1.7H125
	c-0.9,0-1.7,0.8-1.7,1.7v0c0,0.9,0.8,1.7,1.7,1.7h2.9C128.8,28.5,129.6,27.8,129.6,26.9z M133.6,35.7c0-0.4-0.2-1.1-0.6-1.9
	c-0.6-1-1.4-1.4-1.8-1.6c-3,0-6,0-9,0c-0.2,0.5-0.7,1.4-1.6,2.2c-0.8,0.8-1.7,1.1-2.2,1.3C123.5,35.7,128.5,35.7,133.6,35.7z
	 M87.3,18.1l1.7,3.5h1.9c0.3-0.5,0.7-1.3,1.4-2c0.7-0.7,1.3-1.1,1.8-1.4C91.9,18.1,89.6,18.1,87.3,18.1z M74.9,32.2V35
	c0,0.3,0.2,0.5,0.5,0.5h2.8c0.3,0,0.6-0.2,0.6-0.6v-9.5c0-0.1,0.2-0.2,0.3-0.1l5.7,9.7c0.2,0.3,0.5,0.5,0.8,0.5h2.6
	c0.5,0,0.9-0.4,0.9-0.9V18.1h-3.2c-0.3,0-0.6,0.3-0.6,0.6v10.1l-6-10.2c-0.2-0.3-0.5-0.5-0.9-0.5h-2.6c-0.4,0-0.8,0.3-0.8,0.8V32.2z
	 M57.7,17.9c0.6,0.2,1.6,0.7,2.5,1.6c0.8,0.8,1.3,1.6,1.6,2.2c3,0,6,0,9,0c0.3-0.2,1.2-0.6,1.8-1.6c0.5-0.8,0.6-1.6,0.6-2
	C68,18,62.9,17.9,57.7,17.9z M69.4,26.9L69.4,26.9c0-0.9-0.8-1.7-1.7-1.7h-2.9c-0.9,0-1.7,0.8-1.7,1.7v0c0,0.9,0.8,1.7,1.7,1.7h2.9
	C68.6,28.5,69.4,27.8,69.4,26.9z M73.2,35.5c0-0.4-0.2-1.1-0.6-1.9c-0.6-1-1.4-1.4-1.8-1.6c-3,0-6,0-9,0c-0.3,0.6-0.9,1.6-2,2.5
	c-0.6,0.5-1.2,0.8-1.7,1.1C63.1,35.5,68.1,35.5,73.2,35.5z M99.7,21.4c-2.9,0-5.2,2.4-5.2,5.2s2.4,5.2,5.2,5.2s5.2-2.4,5.2-5.2
	S102.6,21.4,99.7,21.4z M108.5,26.7c0,4.9-3.9,8.8-8.8,8.8c-4.9,0-8.8-3.9-8.8-8.8s3.9-8.8,8.8-8.8
	C104.6,17.9,108.5,21.9,108.5,26.7z M73.4,32.8c0.5,0.6,0.7,1.1,0.8,1.5c0.2,0.5,0.2,0.9,0.2,1.2c0.3,0,0.7,0,1,0L75,31.8
	c-0.9,0-1.9,0-2.8,0C72.6,32,73,32.3,73.4,32.8z M39.7,21.5c-2.9,0-5.2,2.4-5.2,5.2s2.4,5.2,5.2,5.2s5.2-2.4,5.2-5.2
	S42.6,21.5,39.7,21.5z M48.5,26.8c0,4.9-3.9,8.8-8.8,8.8s-8.8-3.9-8.8-8.8s3.9-8.8,8.8-8.8S48.5,21.9,48.5,26.8z M34.7,18
	c-3,0-6,0-9,0c-4.5,0.4-8,4-8.3,8.1c-0.4,4.7,3.3,9,8.3,9.5c3.1,0,6.1,0,9.2,0c-0.1-0.1-0.2-0.2-0.3-0.3c-0.3-0.2-0.5-0.3-0.7-0.4
	c-0.6-0.4-1.3-0.9-2-1.7c-0.3-0.4-0.6-0.8-0.9-1.1c-1.1,0-2.2,0-3.2,0c-3.9,0.4-6.8-2.7-6.7-5.6c0.2-2.7,3.1-5.3,6.7-4.8
	c1.1,0,2.1,0,3.2,0c0.3-0.5,0.6-0.9,0.8-1.1c0.1-0.2,0.8-0.9,1.6-1.5c0.2-0.1,0.5-0.3,0.9-0.7C34.4,18.2,34.6,18.1,34.7,18z
	 M45,18.4c0.4,0.3,0.7,0.5,0.9,0.7c0.9,0.6,1.5,1.3,1.6,1.5c0.2,0.3,0.5,0.6,0.8,1.1c1.1,0,2.1,0,3.2,0c3.6-0.5,6.5,2.1,6.7,4.8
	c0.2,2.9-2.8,6-6.7,5.6c-1.1,0-2.2,0-3.2,0c-0.2,0.4-0.5,0.7-0.9,1.1c-0.7,0.8-1.4,1.3-2,1.7c-0.2,0.1-0.5,0.2-0.7,0.4
	c-0.1,0.1-0.2,0.2-0.3,0.3c3.1,0,6.1,0,9.2,0c5-0.5,8.6-4.9,8.3-9.5c-0.3-4.2-3.8-7.7-8.3-8.1c-3,0-6,0-9,0
	C44.7,18.1,44.9,18.2,45,18.4z M105.2,18.4c0.4,0.3,0.7,0.5,0.9,0.7c0.9,0.6,1.5,1.3,1.6,1.5c0.2,0.3,0.5,0.6,0.8,1.1
	c1.1,0,2.1,0,3.2,0c3.6-0.5,6.5,2.1,6.7,4.8c0.2,2.9-2.8,6-6.7,5.6c-1.1,0-2.2,0-3.2,0c-0.2,0.4-0.5,0.7-0.9,1.1
	c-0.7,0.8-1.4,1.3-2,1.7c-0.2,0.1-0.5,0.2-0.7,0.4c-0.1,0.1-0.2,0.2-0.3,0.3c3.1,0,6.1,0,9.2,0c5-0.5,8.6-4.9,8.3-9.5
	c-0.3-4.2-3.8-7.7-8.3-8.1c-3,0-6,0-9,0C104.9,18.1,105,18.2,105.2,18.4z"/>
</svg>
